<?xml version="1.0" encoding="UTF-8" standalone="no"?>
<!DOCTYPE svg PUBLIC "-//W3C//DTD SVG 1.1//EN"
 "http://www.w3.org/Graphics/SVG/1.1/DTD/svg11.dtd">
<!-- Generated by graphviz version 13.1.0 (20250701.0955)
 -->
<!-- Title: multi_button_single_s Pages: 1 -->
<svg width="228pt" height="176pt"
 viewBox="0.00 0.00 228.00 176.00" xmlns="http://www.w3.org/2000/svg" xmlns:xlink="http://www.w3.org/1999/xlink">
<g id="graph0" class="graph" transform="scale(1 1) rotate(0) translate(4 172)">
<title>multi_button_single_s</title>
<!-- Node1 -->
<g id="Node000001" class="node">
<title>Node1</title>
<g id="a_Node000001"><a xlink:title="multi_button single structure definition">
<polygon fill="#999999" stroke="#666666" points="110.5,-20 0,-20 0,0 110.5,0 110.5,-20"/>
<text xml:space="preserve" text-anchor="middle" x="55.25" y="-6.5" font-family="Helvetica,sans-Serif" font-size="10.00">multi_button_single_s</text>
</a>
</g>
</g>
<!-- Node2 -->
<g id="Node000002" class="node">
<title>Node2</title>
<g id="a_Node000002"><a xlink:href="structmulti__button__time__s.html" target="_top" xlink:title="multi_button time structure definition">
<polygon fill="white" stroke="#666666" points="107.12,-168 3.38,-168 3.38,-148 107.12,-148 107.12,-168"/>
<text xml:space="preserve" text-anchor="middle" x="55.25" y="-154.5" font-family="Helvetica,sans-Serif" font-size="10.00">multi_button_time_s</text>
</a>
</g>
</g>
<!-- Node2&#45;&gt;Node1 -->
<g id="edge1_Node000001_Node000002" class="edge">
<title>Node2&#45;&gt;Node1</title>
<g id="a_edge1_Node000001_Node000002"><a xlink:title=" ">
<path fill="none" stroke="#9a32cd" stroke-dasharray="5,2" d="M52.48,-136.37C50.97,-124.09 49.26,-108.19 48.5,-94 47.07,-67.15 51.28,-35.5 53.69,-20.2"/>
<polygon fill="#9a32cd" stroke="#9a32cd" points="48.99,-136.66 53.74,-146.13 55.93,-135.77 48.99,-136.66"/>
</a>
</g>
<text xml:space="preserve" text-anchor="start" x="51.5" y="-80.5" font-family="Helvetica,sans-Serif" font-size="10.00" fill="grey">last_time</text>
</g>
<!-- Node3 -->
<g id="Node000003" class="node">
<title>Node3</title>
<g id="a_Node000003"><a xlink:href="structmulti__button__decode__s.html" target="_top" xlink:title="multi_button decode structure definition">
<polygon fill="white" stroke="#666666" points="219.5,-94 103,-94 103,-74 219.5,-74 219.5,-94"/>
<text xml:space="preserve" text-anchor="middle" x="161.25" y="-80.5" font-family="Helvetica,sans-Serif" font-size="10.00">multi_button_decode_s</text>
</a>
</g>
</g>
<!-- Node2&#45;&gt;Node3 -->
<g id="edge3_Node000003_Node000002" class="edge">
<title>Node2&#45;&gt;Node3</title>
<g id="a_edge3_Node000003_Node000002"><a xlink:title=" ">
<path fill="none" stroke="#9a32cd" stroke-dasharray="5,2" d="M78.61,-141.13C99.67,-126.83 129.93,-106.27 147.39,-94.42"/>
<polygon fill="#9a32cd" stroke="#9a32cd" points="76.67,-138.22 70.36,-146.74 80.6,-144.01 76.67,-138.22"/>
</a>
</g>
<text xml:space="preserve" text-anchor="start" x="123.86" y="-117.5" font-family="Helvetica,sans-Serif" font-size="10.00" fill="grey">t</text>
</g>
<!-- Node3&#45;&gt;Node1 -->
<g id="edge2_Node000001_Node000003" class="edge">
<title>Node3&#45;&gt;Node1</title>
<g id="a_edge2_Node000001_Node000003"><a xlink:title=" ">
<path fill="none" stroke="#9a32cd" stroke-dasharray="5,2" d="M137.89,-67.13C116.83,-52.83 86.57,-32.27 69.11,-20.42"/>
<polygon fill="#9a32cd" stroke="#9a32cd" points="135.9,-70.01 146.14,-72.74 139.83,-64.22 135.9,-70.01"/>
</a>
</g>
<text xml:space="preserve" text-anchor="start" x="123.86" y="-43.5" font-family="Helvetica,sans-Serif" font-size="10.00" fill="grey">decode</text>
</g>
</g>
</svg>
